<?xml version="1.0" encoding="UTF-8" standalone="no"?>
<svg width="18px" height="18px" viewBox="0 0 18 18" version="1.1" xmlns="http://www.w3.org/2000/svg" xmlns:xlink="http://www.w3.org/1999/xlink">
    <!-- Generator: Sketch 3.7.2 (28276) - http://www.bohemiancoding.com/sketch -->
    <title>Artboard 1</title>
    <desc>Created with Sketch.</desc>
    <defs></defs>
    <g id="Page-1" stroke="none" stroke-width="1" fill="none" fill-rule="evenodd">
        <path d="M17.4997285,8.96932162 C16.9654902,8.42104641 16.8463306,7.58603371 17.2057894,6.90797964 C17.4624686,6.42450386 17.4801085,5.8476089 17.2543893,5.34883326 C17.02849,4.84987762 16.5844314,4.4859208 16.0539731,4.36460186 C15.3100355,4.19468335 14.7622973,3.55712892 14.7012775,2.79069561 C14.6578976,2.24404039 14.3634186,1.74886472 13.90586,1.45240731 C13.4481215,1.1559499 12.8796833,1.09169046 12.368485,1.27888882 C11.6513673,1.54132653 10.8489299,1.30354861 10.3866914,0.692093952 C10.0567524,0.256137762 9.5437541,0 8.99997585,0 C8.4560176,0 7.94319926,0.256137762 7.61326032,0.692273951 C7.15102181,1.30354861 6.3482244,1.54132653 5.63164671,1.27888882 C5.12026835,1.09169046 4.55147019,1.1559499 4.09409166,1.45240731 C3.63635314,1.74886472 3.34205408,2.24386039 3.29849422,2.79069561 C3.23747442,3.55712892 2.68955619,4.19450335 1.94597858,4.36460186 C1.41534029,4.4859208 0.971281723,4.84987762 0.745382451,5.34901326 C0.51930318,5.8477889 0.537303122,6.42450386 0.793982295,6.90815963 C1.15362114,7.58621371 1.03428152,8.42104641 0.499863242,8.96950162 C0.118624471,9.3608182 -0.0597549543,9.90891341 0.0178247957,10.4519687 C0.0952245463,10.9948439 0.419403502,11.4700398 0.89460197,11.7373374 C1.56059982,12.1117342 1.9081787,12.8788875 1.75265921,13.6314609 C1.64177956,14.1682162 1.7857791,14.7265713 2.14199795,15.1414677 C2.4982168,15.5560041 3.0259751,15.7792021 3.56903335,15.7448224 C4.3302509,15.6965828 5.03386863,16.1526989 5.30638775,16.8708926 C5.50114713,17.3831681 5.92162577,17.7741247 6.44362409,17.9287433 C6.96544241,18.083362 7.52920059,17.9832829 7.96749918,17.6583857 C8.5820172,17.2031697 9.4186545,17.2031697 10.0328125,17.6583857 C10.4714711,17.9832829 11.0346893,18.083362 11.5568676,17.9287433 C12.0786859,17.7741247 12.4993446,17.3831681 12.6939239,16.8708926 C12.9666231,16.1526989 13.6704208,15.6967628 14.4314583,15.7448224 C14.9743366,15.7792021 15.5019149,15.5560041 15.8581338,15.1414677 C16.2145326,14.7265713 16.3583521,14.1683962 16.2476525,13.6314609 C16.092133,12.8787075 16.4393519,12.1117342 17.1055297,11.7373374 C17.5809082,11.4702198 17.9052672,10.9948439 17.9823069,10.4519687 C18.0595267,9.90873341 17.8813272,9.3606382 17.4997285,8.96932162 L17.4997285,8.96932162 Z M7.99747017,13 L4,9.32479218 L5.70202728,7.76030508 L7.99747017,9.87051161 L13.2968446,5 L15,6.56397292 L7.99747017,13 L7.99747017,13 Z" id="Shape" fill="#77C7F7"></path>
        <g id="Artboard-1"></g>
    </g>
</svg>