<?xml version="1.0" encoding="UTF-8" standalone="no"?>
<svg width="24px" height="24px" viewBox="0 0 24 24" version="1.1" xmlns="http://www.w3.org/2000/svg" xmlns:xlink="http://www.w3.org/1999/xlink">
    <!-- Generator: Sketch 3.7.2 (28276) - http://www.bohemiancoding.com/sketch -->
    <title>Attension-24</title>
    <desc>Created with Sketch.</desc>
    <defs></defs>
    <g id="Page-1" stroke="none" stroke-width="1" fill="none" fill-rule="evenodd">
        <g id="Attension-24" fill="#ff0000">
            <path d="M22.9943,18.9951 L13.7333,2.9981 C13.3713,2.3731 12.7223,2.0001 12.0003,2.0001 C11.2773,2.0001 10.6293,2.3731 10.2663,2.9991 L1.0053,18.9961 C0.6423,19.6231 0.6423,20.3711 1.0053,20.9991 C1.3663,21.6261 2.0143,22.0001 2.7393,22.0001 L21.2603,22.0001 C21.9853,22.0001 22.6333,21.6261 22.9953,20.9991 C23.3573,20.3711 23.3573,19.6231 22.9943,18.9951 Z M2.7363,19.9971 L12.0033,4.0011 L21.2663,20.0021 L2.7363,19.9971 Z M11,18.001 L13,18.001 L13,16.001 L11,16.001 L11,18.001 Z M11,15 L13,15 L13,9 L11,9 L11,15 Z" id="Shape"></path>
        </g>
    </g>
</svg>
